<?xml version="1.0" encoding="utf-8"?>
<!-- Generator: Adobe Illustrator 17.1.0, SVG Export Plug-In . SVG Version: 6.00 Build 0)  -->
<!DOCTYPE svg PUBLIC "-//W3C//DTD SVG 1.1//EN" "http://www.w3.org/Graphics/SVG/1.1/DTD/svg11.dtd">
<svg version="1.1" id="Layer_1" xmlns="http://www.w3.org/2000/svg" xmlns:xlink="http://www.w3.org/1999/xlink" x="0px" y="0px"
	 viewBox="0 0 13.4 10.8" enable-background="new 0 0 13.4 10.8" xml:space="preserve">
<path d="M11.4,8.5l-0.6-0.6c-0.7-0.6-0.6-1.4-0.6-1.5c0-0.1,0-0.4,0-0.5s0-0.2,0-0.2c0.2-0.9,0.9-0.6,0.9-0.6c0.3,0,0.3-0.2,0.3-0.2
	c0.2-0.1,0.1-0.3,0.1-0.3l-0.3-0.4c-0.1-0.4-0.5-0.4-0.5-0.4C10.7,3.3,10.5,3,10.5,3c0,0.1-0.4,0.5-0.5,0.5C9.6,3.7,9.7,3.8,9.4,4
	C9.1,4.2,8.5,4.4,8.2,4.3C7.9,4.1,5.6,3.9,4.6,3.9C4.3,3.9,4.1,4,3.9,4.1C3.7,4,3.5,3.7,3.4,3.3C3.1,2.8,3.1,2.2,3.3,1.9
	c0.1-0.2,0.2-0.3,0.3-0.3c0.2,0,0.4,0.1,0.5,0.2c0.1,0.1,0.3,0.1,0.4,0c0.1-0.1,0.1-0.3,0-0.4c0,0-0.5-0.4-1-0.3
	C3.2,1,2.9,1.2,2.7,1.6C2.5,2.1,2.5,2.8,2.8,3.5C3,3.9,3.2,4.2,3.4,4.5C3.4,4.6,3.3,4.6,3.3,4.6C3.3,4.8,3,5.3,3.1,5.7
	S2.9,6.3,2.9,6.4c0,0-0.6,0.3-0.6,0.3L1.9,8.2C1.8,8.5,2.2,8.6,2.2,8.6c0.1,0,0.1-0.5,0.1-0.5l0.3-0.8l1.2-0.5c0,0,0,0.5,0,0.6
	S3.8,7.8,3.8,7.8c0,0.3,0.9,1.1,0.9,1.1h0.6V8.7C5.3,8.5,5,8.6,5,8.6L4.5,7.9c0.5-0.4,0.7-1,0.7-1c0.2,0.2,1.3-0.2,1.3-0.2l0.7,0.1
	L7,8.3c-0.1,0.4,0,0.5,0,0.5h0.3c0.2,0,0.4,0,0.4-0.2c0-0.2-0.3-0.2-0.3-0.2L8.1,7c0.7-0.4,1.1,0.2,1.1,0.2l0,0.2
	c0.3,0.4,1.8,1.4,1.8,1.4h0.7V8.6C11.7,8.4,11.4,8.5,11.4,8.5z"/>
</svg>
